# xmcd
#
# Track frame offsets:
#	150
#	10441
#	32204
#	47490
#	63145
#	86040
#	95821
#	151760
#
# Disc length: 2314 seconds
#
# Revision: 0
# Processed by: cddbd v1.5.1PL2 Copyright (c) Steve Scherf et al.
# Submitted via: dBpowerAMP V4.0
#
DISCID=5c090808
DTITLE=Alex Harvey - The Joker is Wild
DYEAR=1972
DGENRE=Bluesrock
TTITLE0=The Joker is Wild
TTITLE1=Pebicillin Blues
TTITLE2=Make Love to You
TTITLE3=I´m Just A Man
TTITLE4=He Ain´t Heavy
TTITLE5=Silhouette And Shadow
TTITLE6=Hare Krishna and Willie The Pimp
TTITLE7=Flying Saucer´s Daughter
EXTD=
EXTT0=
EXTT1=
EXTT2=
EXTT3=
EXTT4=
EXTT5=
EXTT6=
EXTT7=
PLAYORDER=
